<svg width="40" height="40" viewBox="0 0 40 40" fill="none" xmlns="http://www.w3.org/2000/svg">
<rect width="40" height="40" rx="5" fill="white"/>
<path d="M8.75677 27.8011C8.75677 25.3191 11.6114 23.923 13.5706 25.4468V25.4468C15.8123 27.1903 14.5794 30.7838 11.7394 30.7838H11.563C10.0145 30.7838 8.75677 29.5219 8.75677 27.9683V27.8011Z" fill="#FFF7C3"/>
<path d="M33.3591 11.3243C34.008 11.3243 34.104 12.1025 33.5847 12.4917L16.2054 25.5158V25.5158C16.1403 25.5626 16.0522 25.5615 15.9884 25.513L10.7328 21.5218C9.48789 20.5764 8.75677 19.1031 8.75677 17.5399V14.0895C8.75677 12.5636 10.0201 11.3243 11.5756 11.3243H33.3591V11.3243Z" fill="#FFD6C6"/>
<path d="M36 14.1652V27.9996C36 29.5359 34.7637 30.7838 33.2415 30.7838H24.2073C23.2774 30.7838 22.3741 30.4729 21.6411 29.9005V29.9005C19.4948 28.2246 19.5049 24.9745 21.6615 23.3119L34.2308 13.622C34.9349 13.0791 36 13.2761 36 14.1652V14.1652Z" fill="#EBF2FF"/>
<path fill-rule="evenodd" clip-rule="evenodd" d="M10.8974 11.3439C9.00637 11.3439 7.47124 12.8926 7.47124 14.8005V28.3837C7.47124 29.6953 8.52496 30.7642 9.83087 30.7642H32.3313C33.6398 30.7642 34.6971 29.7005 34.6909 28.3858L34.6909 28.3847V14.8005C34.6909 12.8926 33.1558 11.3439 31.2647 11.3439H10.8974ZM6.5946 14.8005C6.5946 12.4042 8.52221 10.4595 10.8974 10.4595H31.2647C33.6399 10.4595 35.5675 12.4042 35.5675 14.8005V28.3826C35.5755 30.1924 34.1199 31.6487 32.3313 31.6487H9.83087C8.03931 31.6487 6.5946 30.1823 6.5946 28.3837V14.8005Z" fill="black"/>
<path d="M19.0195 15.8241C18.6015 15.0043 17.5981 14.6786 16.7783 15.0966L13.343 16.8484C12.5232 17.2665 12.1975 18.2699 12.6155 19.0897V19.0897C13.0336 19.9094 14.037 20.2351 14.8568 19.8171L18.2921 18.0653C19.1119 17.6473 19.4376 16.6438 19.0195 15.8241V15.8241Z" fill="white"/>
<path fill-rule="evenodd" clip-rule="evenodd" d="M10.6986 20.0668C10.1711 19.0322 10.5821 17.7659 11.6166 17.2383L15.052 15.4865C16.0865 14.959 17.3529 15.37 17.8804 16.4045V16.4045C18.408 17.4391 17.997 18.7054 16.9624 19.233L13.5271 20.9848C12.4925 21.5123 11.2262 21.1013 10.6986 20.0668V20.0668ZM12.0133 18.0161C11.4083 18.3246 11.1679 19.0652 11.4764 19.6701V19.6701C11.7849 20.2751 12.5255 20.5155 13.1305 20.207L16.5658 18.4552C17.1708 18.1467 17.4111 17.4061 17.1026 16.8012V16.8012C16.7941 16.1962 16.0536 15.9558 15.4486 16.2643L12.0133 18.0161Z" fill="black"/>
<path d="M25.8378 28.6216C27.1514 28.6216 28.2162 27.46 28.2162 26.027C28.2162 24.5941 27.1514 23.4324 25.8378 23.4324C24.5243 23.4324 23.4595 24.5941 23.4595 26.027C23.4595 27.46 24.5243 28.6216 25.8378 28.6216Z" fill="white"/>
<path fill-rule="evenodd" clip-rule="evenodd" d="M24.3243 23.8795C23.1383 23.8795 22.1768 24.841 22.1768 26.027C22.1768 27.2131 23.1383 28.1745 24.3243 28.1745C25.5104 28.1745 26.4718 27.2131 26.4718 26.027C26.4718 24.841 25.5104 23.8795 24.3243 23.8795ZM21.2973 26.027C21.2973 24.3552 22.6525 23 24.3243 23C25.9961 23 27.3514 24.3552 27.3514 26.027C27.3514 27.6988 25.9961 29.0541 24.3243 29.0541C22.6525 29.0541 21.2973 27.6988 21.2973 26.027Z" fill="black"/>
<path d="M30.3784 18.6757C30.3784 17.7204 29.604 16.946 28.6487 16.946V16.946C27.6934 16.946 26.9189 17.7204 26.9189 18.6757V18.6757C26.9189 19.631 27.6934 20.4054 28.6487 20.4054V20.4054C29.604 20.4054 30.3784 19.631 30.3784 18.6757V18.6757Z" fill="white"/>
<path fill-rule="evenodd" clip-rule="evenodd" d="M25.1892 18.6757C25.1892 17.4816 26.1572 16.5135 27.3514 16.5135H27.7838C28.9779 16.5135 29.946 17.4816 29.946 18.6757V18.6757C29.946 19.8698 28.9779 20.8378 27.7838 20.8378H27.3514C26.1572 20.8378 25.1892 19.8698 25.1892 18.6757V18.6757ZM27.4373 17.3727C26.7176 17.3727 26.1343 17.956 26.1343 18.6757V18.6757C26.1343 19.3953 26.7176 19.9787 27.4373 19.9787H27.6979C28.4175 19.9787 29.0009 19.3953 29.0009 18.6757V18.6757C29.0009 17.956 28.4175 17.3727 27.6979 17.3727H27.4373Z" fill="black"/>
<path fill-rule="evenodd" clip-rule="evenodd" d="M19.7099 7.83398C18.8963 7.83398 18.2409 8.48821 18.2409 9.30039V10.4742C18.2409 10.7049 18.0538 10.8919 17.8231 10.8919V10.8919C17.5924 10.8919 17.4054 10.7049 17.4054 10.4742V9.30039C17.4054 8.02762 18.4349 7 19.7099 7H22.8847C24.1597 7 25.1892 8.02762 25.1892 9.30039V10.4742C25.1892 10.7049 25.0022 10.8919 24.7714 10.8919V10.8919C24.5407 10.8919 24.3537 10.7049 24.3537 10.4742V9.30039C24.3537 8.48821 23.6983 7.83398 22.8847 7.83398H19.7099Z" fill="black"/>
<path fill-rule="evenodd" clip-rule="evenodd" d="M4 31.2162C4 30.9774 4.19361 30.7838 4.43243 30.7838V30.7838C4.67126 30.7838 4.86486 30.9774 4.86486 31.2162V31.2162C4.86486 31.455 4.67126 31.6486 4.43243 31.6486V31.6486C4.19361 31.6486 4 31.455 4 31.2162V31.2162Z" fill="black"/>
<path fill-rule="evenodd" clip-rule="evenodd" d="M6.16217 31.2162C6.16217 30.9774 6.35578 30.7838 6.5946 30.7838H10.4865C10.7253 30.7838 10.9189 30.9774 10.9189 31.2162V31.2162C10.9189 31.455 10.7253 31.6486 10.4865 31.6486H6.5946C6.35578 31.6486 6.16217 31.455 6.16217 31.2162V31.2162Z" fill="black"/>
</svg>
